custom-analysis
version=1
nRows=4
nColumns=146
inDegrees=no

This file contains tibia displacement and acting force.

Units are S.I. units (seconds, meters, Newtons, ...)
Angles are in degrees.

endheader
time	APT	SIT	knee_angle	aACL_R_force	pACL_R_force	aPCL_R_force	pPCL_R_force	aMCL_R_force	mMCL_R_force	pMCL_R_force	aLCL_R_force	mLCL_R_force	pLCL_R_force	aPCL_L_force	pPCL_L_force	aMCL_L_force	aLCL_L_force	aACL_R_length	pACL_R_length	aPCL_R_length	pPCL_R_length	aMCL_R_length	mMCL_R_length	pMCL_R_length	aLCL_R_length	mLCL_R_length	pLCL_R_length	aPCL_L_length	pPCL_L_length	aMCL_L_length	aLCL_L_length	aACL_R_strain	pACL_R_strain	aPCL_R_strain	pPCL_R_strain	aMCL_R_strain	mMCL_R_strain	pMCL_R_strain	aLCL_R_strain	mLCL_R_strain	pLCL_R_strain	aPCL_L_strain	pPCL_L_strain	aMCL_L_strain	aLCL_L_strain	femur_lat_meniscii_l.femur_lat_l.force.X	femur_lat_meniscii_l.femur_lat_l.force.Y	femur_lat_meniscii_l.femur_lat_l.force.Z	femur_lat_meniscii_l.femur_lat_l.torque.X	femur_lat_meniscii_l.femur_lat_l.torque.Y	femur_lat_meniscii_l.femur_lat_l.torque.Z	femur_lat_meniscii_l.meniscus_lat_l.force.X	femur_lat_meniscii_l.meniscus_lat_l.force.Y	femur_lat_meniscii_l.meniscus_lat_l.force.Z	femur_lat_meniscii_l.meniscus_lat_l.torque.X	femur_lat_meniscii_l.meniscus_lat_l.torque.Y	femur_lat_meniscii_l.meniscus_lat_l.torque.Z	femur_med_meniscii_l.femur_med_l.force.X	femur_med_meniscii_l.femur_med_l.force.Y	femur_med_meniscii_l.femur_med_l.force.Z	femur_med_meniscii_l.femur_med_l.torque.X	femur_med_meniscii_l.femur_med_l.torque.Y	femur_med_meniscii_l.femur_med_l.torque.Z	femur_med_meniscii_l.meniscus_med_l.force.X	femur_med_meniscii_l.meniscus_med_l.force.Y	femur_med_meniscii_l.meniscus_med_l.force.Z	femur_med_meniscii_l.meniscus_med_l.torque.X	femur_med_meniscii_l.meniscus_med_l.torque.Y	femur_med_meniscii_l.meniscus_med_l.torque.Z	femur_lat_meniscii_r.femur_lat_r.force.X	femur_lat_meniscii_r.femur_lat_r.force.Y	femur_lat_meniscii_r.femur_lat_r.force.Z	femur_lat_meniscii_r.femur_lat_r.torque.X	femur_lat_meniscii_r.femur_lat_r.torque.Y	femur_lat_meniscii_r.femur_lat_r.torque.Z	femur_lat_meniscii_r.meniscus_lat_r.force.X	femur_lat_meniscii_r.meniscus_lat_r.force.Y	femur_lat_meniscii_r.meniscus_lat_r.force.Z	femur_lat_meniscii_r.meniscus_lat_r.torque.X	femur_lat_meniscii_r.meniscus_lat_r.torque.Y	femur_lat_meniscii_r.meniscus_lat_r.torque.Z	femur_med_meniscii_r.femur_med_r.force.X	femur_med_meniscii_r.femur_med_r.force.Y	femur_med_meniscii_r.femur_med_r.force.Z	femur_med_meniscii_r.femur_med_r.torque.X	femur_med_meniscii_r.femur_med_r.torque.Y	femur_med_meniscii_r.femur_med_r.torque.Z	femur_med_meniscii_r.meniscus_med_r.force.X	femur_med_meniscii_r.meniscus_med_r.force.Y	femur_med_meniscii_r.meniscus_med_r.force.Z	femur_med_meniscii_r.meniscus_med_r.torque.X	femur_med_meniscii_r.meniscus_med_r.torque.Y	femur_med_meniscii_r.meniscus_med_r.torque.Z	femur_med_tibia_l.tibia_upper_l.force.X	femur_med_tibia_l.tibia_upper_l.force.Y	femur_med_tibia_l.tibia_upper_l.force.Z	femur_med_tibia_l.tibia_upper_l.torque.X	femur_med_tibia_l.tibia_upper_l.torque.Y	femur_med_tibia_l.tibia_upper_l.torque.Z	femur_med_tibia_l.femur_med_l.force.X	femur_med_tibia_l.femur_med_l.force.Y	femur_med_tibia_l.femur_med_l.force.Z	femur_med_tibia_l.femur_med_l.torque.X	femur_med_tibia_l.femur_med_l.torque.Y	femur_med_tibia_l.femur_med_l.torque.Z	femur_lat_tibia_l.tibia_upper_l.force.X	femur_lat_tibia_l.tibia_upper_l.force.Y	femur_lat_tibia_l.tibia_upper_l.force.Z	femur_lat_tibia_l.tibia_upper_l.torque.X	femur_lat_tibia_l.tibia_upper_l.torque.Y	femur_lat_tibia_l.tibia_upper_l.torque.Z	femur_lat_tibia_l.femur_lat_l.force.X	femur_lat_tibia_l.femur_lat_l.force.Y	femur_lat_tibia_l.femur_lat_l.force.Z	femur_lat_tibia_l.femur_lat_l.torque.X	femur_lat_tibia_l.femur_lat_l.torque.Y	femur_lat_tibia_l.femur_lat_l.torque.Z	femur_med_tibia_r.tibia_upper_r.force.X	femur_med_tibia_r.tibia_upper_r.force.Y	femur_med_tibia_r.tibia_upper_r.force.Z	femur_med_tibia_r.tibia_upper_r.torque.X	femur_med_tibia_r.tibia_upper_r.torque.Y	femur_med_tibia_r.tibia_upper_r.torque.Z	femur_med_tibia_r.femur_med_r.force.X	femur_med_tibia_r.femur_med_r.force.Y	femur_med_tibia_r.femur_med_r.force.Z	femur_med_tibia_r.femur_med_r.torque.X	femur_med_tibia_r.femur_med_r.torque.Y	femur_med_tibia_r.femur_med_r.torque.Z	femur_lat_tibia_r.tibia_upper_r.force.X	femur_lat_tibia_r.tibia_upper_r.force.Y	femur_lat_tibia_r.tibia_upper_r.force.Z	femur_lat_tibia_r.tibia_upper_r.torque.X	femur_lat_tibia_r.tibia_upper_r.torque.Y	femur_lat_tibia_r.tibia_upper_r.torque.Z	femur_lat_tibia_r.femur_lat_r.force.X	femur_lat_tibia_r.femur_lat_r.force.Y	femur_lat_tibia_r.femur_lat_r.force.Z	femur_lat_tibia_r.femur_lat_r.torque.X	femur_lat_tibia_r.femur_lat_r.torque.Y	femur_lat_tibia_r.femur_lat_r.torque.Z	femur_lat_meniscii_force_r	femur_med_meniscii_force_r	femur_lat_tibia_force_r	femur_med_tibia_force_r
      0.07979424	      0.00635326	      0.00534509	     22.03570711	      0.00000000	      0.00000000	     28.86323096	     40.64267141	      0.00000000	      0.00000000	      0.00000000	      5.37004836	      0.00000000	      0.00000000	      0.00000000	      0.00000000	      0.00000001	      0.00000000	      0.02913230	      0.02077787	      0.03122212	      0.03001349	      0.05710085	      0.05934789	      0.06057107	      0.05601694	      0.05309482	      0.04989342	      0.01525851	      0.01651186	      0.06550154	      0.04489616	     -0.11196897	     -0.15395089	      0.00407854	      0.00420538	     -0.03263175	     -0.00745252	     -0.00258418	      0.00070985	     -0.05724191	     -0.04679312	      0.00000079	     -0.32847694	      0.00000060	     -0.00000086	      2.76307435	     50.99597937	     -9.56042239	      5.21997485	     -0.02578839	      1.48581788	     -2.76307435	    -50.99597937	      9.56042239	     -1.74637766	      0.02558040	     -0.48301696	     -3.31599387	     20.97615968	     -3.40468921	      0.94473225	     -0.02138609	     -1.00501789	      3.31599387	    -20.97615968	      3.40468921	      0.28075727	      0.00368718	     -0.29758878	     74.57338316	    301.14097484	     16.59928784	    -13.85630900	      1.82757787	     28.93143402	    -74.57338316	   -301.14097484	    -16.59928784	      8.55980075	     -2.20333599	      1.68040367	     93.69347185	    694.43636975	     23.79298337	      6.67169914	     -1.89381856	     35.22517214	    -93.69347185	   -694.43636975	    -23.79298337	    -13.34617009	      1.40129162	      5.43315808	      0.00000000	      0.00000000	      0.00000000	      0.00000000	      0.00000000	      0.00000000	      0.00000000	      0.00000000	      0.00000000	      0.00000000	      0.00000000	      0.00000000	      0.00000000	      0.00000000	      0.00000000	      0.00000000	      0.00000000	      0.00000000	      0.00000000	      0.00000000	      0.00000000	      0.00000000	      0.00000000	      0.00000000	     35.83369799	   -252.40506969	     25.51109747	     -5.59587506	     -0.47461408	      3.14566982	    -35.83369799	    252.40506969	    -25.51109747	     16.23283374	      0.77709708	    -15.09393360	      0.00000000	      0.00000000	      0.00000000	      0.00000000	      0.00000000	      0.00000000	      0.00000000	      0.00000000	      0.00000000	      0.00000000	      0.00000000	      0.00000000	    310.68088541	    701.13225881	      0.00000000	    256.20926840
      0.08053504	      0.00641958	      0.00544288	     22.38962120	      0.00000000	      0.00000000	     30.72508927	     43.57849984	      0.00000000	      0.00000000	      0.00000000	      8.36030964	      0.00000000	      0.00000000	      0.00000000	      0.00000000	      0.00000001	      0.00000000	      0.02910275	      0.02074478	      0.03127983	      0.03004462	      0.05711615	      0.05933432	      0.06053813	      0.05602254	      0.05307737	      0.04985496	      0.01525851	      0.01651186	      0.06550154	      0.04489616	     -0.11286989	     -0.15529820	      0.00593421	      0.00524686	     -0.03237247	     -0.00767945	     -0.00312655	      0.00080996	     -0.05755159	     -0.04752798	      0.00000079	     -0.32847694	      0.00000060	     -0.00000086	      2.76307435	     50.99597937	     -9.56042239	      5.21997485	     -0.02578839	      1.48581788	     -2.76307435	    -50.99597937	      9.56042239	     -1.74637766	      0.02558040	     -0.48301696	     -3.31599387	     20.97615968	     -3.40468921	      0.94473225	     -0.02138609	     -1.00501789	      3.31599387	    -20.97615968	      3.40468921	      0.28075727	      0.00368718	     -0.29758878	     73.38983180	    286.08184817	     15.89027455	    -13.21035745	      1.79449818	     28.51390149	    -73.38983180	   -286.08184817	    -15.89027455	      8.12943072	     -2.16217256	      1.57200579	     98.42069538	    684.32217536	     20.90718684	      7.64265801	     -2.01921158	     37.15735742	    -98.42069538	   -684.32217536	    -20.90718684	    -13.25631513	      1.52898195	      5.31488206	      0.00000000	      0.00000000	      0.00000000	      0.00000000	      0.00000000	      0.00000000	      0.00000000	      0.00000000	      0.00000000	      0.00000000	      0.00000000	      0.00000000	      0.00000000	      0.00000000	      0.00000000	      0.00000000	      0.00000000	      0.00000000	      0.00000000	      0.00000000	      0.00000000	      0.00000000	      0.00000000	      0.00000000	     34.05057555	   -263.41012824	     26.78412622	     -5.83957475	     -0.42640196	      3.20062978	    -34.05057555	    263.41012824	    -26.78412622	     16.99827804	      0.73418566	    -14.35973660	      0.00000000	      0.00000000	      0.00000000	      0.00000000	      0.00000000	      0.00000000	      0.00000000	      0.00000000	      0.00000000	      0.00000000	      0.00000000	      0.00000000	    295.77253437	    691.67953810	      0.00000000	    266.94892165
      0.08119672	      0.00647985	      0.00552921	     22.70739483	      0.00000000	      0.00000000	     32.89942357	     46.60507616	      0.00000000	      0.00000000	      0.00000000	      9.95730907	      0.00000000	      0.00000000	      0.00000000	      0.00000000	      0.00000001	      0.00000000	      0.02907795	      0.02071695	      0.03133264	      0.03007361	      0.05713215	      0.05932442	      0.06051086	      0.05602919	      0.05306337	      0.04982217	      0.01525851	      0.01651186	      0.06550154	      0.04489616	     -0.11362562	     -0.15643129	      0.00763273	      0.00621694	     -0.03210147	     -0.00784500	     -0.00357554	      0.00092869	     -0.05780020	     -0.04815428	      0.00000079	     -0.32847694	      0.00000060	     -0.00000086	      2.76307435	     50.99597937	     -9.56042239	      5.21997485	     -0.02578839	      1.48581788	     -2.76307435	    -50.99597937	      9.56042239	     -1.74637766	      0.02558040	     -0.48301696	     -3.31599387	     20.97615968	     -3.40468921	      0.94473225	     -0.02138609	     -1.00501789	      3.31599387	    -20.97615968	      3.40468921	      0.28075727	      0.00368718	     -0.29758878	     69.05020172	    276.68646803	     14.66358090	    -12.47931257	      1.68625574	     26.73755214	    -69.05020172	   -276.68646803	    -14.66358090	      7.83228585	     -2.03100558	      1.65017601	    107.06973289	    682.55951121	     23.28061692	      6.59554131	     -2.25274150	     40.71269094	   -107.06973289	   -682.55951121	    -23.28061692	    -13.12923994	      1.71427487	      5.12358942	      0.00000000	      0.00000000	      0.00000000	      0.00000000	      0.00000000	      0.00000000	      0.00000000	      0.00000000	      0.00000000	      0.00000000	      0.00000000	      0.00000000	      0.00000000	      0.00000000	      0.00000000	      0.00000000	      0.00000000	      0.00000000	      0.00000000	      0.00000000	      0.00000000	      0.00000000	      0.00000000	      0.00000000	     33.32223396	   -269.99954942	     27.38555051	     -5.97588816	     -0.40163052	      3.26728776	    -33.32223396	    269.99954942	    -27.38555051	     17.38450872	      0.71363887	    -14.07293539	      0.00000000	      0.00000000	      0.00000000	      0.00000000	      0.00000000	      0.00000000	      0.00000000	      0.00000000	      0.00000000	      0.00000000	      0.00000000	      0.00000000	    285.54921214	    691.29834454	      0.00000000	    273.42292577
      0.08185841	      0.00653908	      0.00561536	     23.02631407	      0.00000000	      0.00000000	     35.21810469	     49.35207597	      0.00000000	      0.00000000	      0.00000000	     11.14789672	      0.00000000	      0.00000000	      0.00000000	      0.00000000	      0.00000001	      0.00000000	      0.02905326	      0.02068955	      0.03138686	      0.03010387	      0.05714939	      0.05931576	      0.06048484	      0.05603685	      0.05305031	      0.04979037	      0.01525851	      0.01651186	      0.06550154	      0.04489616	     -0.11437828	     -0.15754699	      0.00937630	      0.00722944	     -0.03180932	     -0.00798978	     -0.00400412	      0.00106566	     -0.05803216	     -0.04876186	      0.00000079	     -0.32847694	      0.00000060	     -0.00000086	      2.76307435	     50.99597937	     -9.56042239	      5.21997485	     -0.02578839	      1.48581788	     -2.76307435	    -50.99597937	      9.56042239	     -1.74637766	      0.02558040	     -0.48301696	     -3.31599387	     20.97615968	     -3.40468921	      0.94473225	     -0.02138609	     -1.00501789	      3.31599387	    -20.97615968	      3.40468921	      0.28075727	      0.00368718	     -0.29758878	     67.52014014	    264.73196765	     13.39456025	    -11.67354216	      1.64127708	     26.15675109	    -67.52014014	   -264.73196765	    -13.39456025	      7.46814271	     -1.97240878	      1.58662391	    110.02087067	    677.26034210	     22.74236233	      6.68283094	     -2.32563164	     41.89145347	   -110.02087067	   -677.26034210	    -22.74236233	    -13.03472458	      1.77940101	      5.10371770	      0.00000000	      0.00000000	      0.00000000	      0.00000000	      0.00000000	      0.00000000	      0.00000000	      0.00000000	      0.00000000	      0.00000000	      0.00000000	      0.00000000	      0.00000000	      0.00000000	      0.00000000	      0.00000000	      0.00000000	      0.00000000	      0.00000000	      0.00000000	      0.00000000	      0.00000000	      0.00000000	      0.00000000	     32.25530281	   -273.80770599	     28.51682621	     -6.08304856	     -0.36734376	      3.30238745	    -32.25530281	    273.80770599	    -28.51682621	     17.93471839	      0.68641995	    -13.64413008	      0.00000000	      0.00000000	      0.00000000	      0.00000000	      0.00000000	      0.00000000	      0.00000000	      0.00000000	      0.00000000	      0.00000000	      0.00000000	      0.00000000	    273.53500373	    686.51538804	      0.00000000	    277.17192101
